<?xml version="1.0" encoding="utf-8"?>
<!-- Generator: Adobe Illustrator 24.2.3, SVG Export Plug-In . SVG Version: 6.00 Build 0)  -->
<svg version="1.1" id="Layer_1" xmlns="http://www.w3.org/2000/svg" xmlns:xlink="http://www.w3.org/1999/xlink" x="0px" y="0px"
	 viewBox="0 0 595.3 200" style="enable-background:new 0 0 595.3 200;" xml:space="preserve">
<style type="text/css">
	.st0{fill:#009FE3;}
	.st1{fill:#164194;}
	.st2{fill:#E30613;}
	.st3{fill:#0F265C;}
</style>
<g>
	<g>
		<path d="M209,100.8c1.3,0,2.3-0.1,3.2-0.3c0.8-0.2,1.5-0.5,2-0.9s0.9-0.8,1.1-1.3c0.2-0.5,0.3-1.1,0.3-1.7c0-1.3-0.6-2.4-1.9-3.3
			c-1.2-0.9-3.4-1.8-6.4-2.8c-1.3-0.5-2.6-1-3.9-1.6c-1.3-0.6-2.5-1.4-3.5-2.3s-1.9-2-2.6-3.3c-0.7-1.3-1-2.9-1-4.7s0.3-3.5,1-5
			s1.7-2.8,3-3.8c1.3-1.1,2.8-1.8,4.6-2.4s3.9-0.8,6.2-0.8c2.7,0,5.1,0.3,7,0.9c2,0.6,3.6,1.2,4.9,1.9l-2.6,7.2
			c-1.1-0.6-2.4-1.1-3.7-1.5c-1.4-0.4-3-0.7-5-0.7c-2.2,0-3.7,0.3-4.7,0.9s-1.4,1.5-1.4,2.8c0,0.7,0.2,1.4,0.5,1.9s0.8,1,1.5,1.4
			c0.6,0.4,1.4,0.8,2.2,1.1c0.8,0.3,1.8,0.7,2.8,1c2.1,0.8,3.9,1.5,5.5,2.3c1.5,0.8,2.8,1.6,3.9,2.6c1,1,1.8,2.2,2.3,3.5
			s0.8,3,0.8,4.9c0,3.8-1.3,6.7-3.9,8.7c-2.6,2.1-6.6,3.1-11.9,3.1c-1.8,0-3.4-0.1-4.8-0.3c-1.4-0.2-2.7-0.5-3.8-0.8s-2.1-0.6-2.9-1
			c-0.8-0.3-1.5-0.7-2-1l2.6-7.2c1.2,0.7,2.7,1.2,4.4,1.8C204.3,100.5,206.5,100.8,209,100.8z"/>
		<path d="M228.9,92.6c0-2.7,0.4-5.1,1.2-7.1s1.9-3.7,3.3-5.1c1.3-1.4,2.9-2.4,4.7-3.1s3.6-1.1,5.4-1.1c4.3,0,7.8,1.3,10.3,4
			s3.8,6.6,3.8,11.7c0,0.5,0,1.1-0.1,1.6s-0.1,1.1-0.1,1.6h-19.7c0.2,1.8,1,3.2,2.5,4.2c1.5,1.1,3.5,1.6,5.9,1.6
			c1.6,0,3.2-0.1,4.7-0.4s2.8-0.7,3.7-1.1l1.2,7c-0.5,0.2-1.1,0.5-1.9,0.7c-0.8,0.2-1.6,0.4-2.6,0.6s-2,0.3-3.1,0.4
			s-2.2,0.2-3.3,0.2c-2.8,0-5.1-0.4-7.2-1.2c-2-0.8-3.7-1.9-5.1-3.3c-1.3-1.4-2.3-3.1-3-5C229.3,97,228.9,94.9,228.9,92.6z
			 M249.3,89.3c0-0.7-0.2-1.5-0.4-2.1c-0.2-0.7-0.5-1.3-1-1.9c-0.4-0.5-1-1-1.7-1.3c-0.7-0.4-1.5-0.5-2.5-0.5s-1.8,0.2-2.5,0.5
			s-1.3,0.8-1.7,1.3c-0.5,0.5-0.8,1.2-1.1,1.9c-0.3,0.7-0.4,1.4-0.6,2.2L249.3,89.3L249.3,89.3z"/>
		<path d="M272.1,88.1c0.9-0.9,1.7-1.9,2.6-2.9s1.8-2,2.6-3c0.9-1,1.6-1.9,2.4-2.8s1.4-1.6,1.9-2.3h10.3c-2.1,2.4-4.1,4.6-6,6.8
			c-2,2.1-4.1,4.4-6.4,6.6c1.2,1.1,2.4,2.3,3.6,3.7c1.2,1.5,2.4,3,3.6,4.5s2.2,3.1,3.2,4.7c1,1.5,1.8,3,2.4,4.2h-10
			c-0.6-1-1.3-2.1-2.1-3.4c-0.8-1.2-1.6-2.4-2.5-3.7c-0.9-1.2-1.8-2.4-2.8-3.5s-2-2.1-2.9-2.9v13.4h-8.7V64l8.7-1.4L272.1,88.1
			L272.1,88.1z"/>
		<path d="M322.8,92.4c0,2.4-0.4,4.6-1.1,6.6s-1.7,3.7-3,5.1s-2.9,2.5-4.7,3.3s-3.9,1.2-6.2,1.2c-2.2,0-4.3-0.4-6.1-1.2
			c-1.8-0.8-3.4-1.9-4.7-3.3c-1.3-1.4-2.3-3.1-3.1-5.1c-0.7-2-1.1-4.2-1.1-6.6s0.4-4.6,1.1-6.6c0.8-2,1.8-3.7,3.1-5.1
			c1.3-1.4,2.9-2.5,4.8-3.3c1.8-0.8,3.8-1.2,6-1.2s4.2,0.4,6.1,1.2c1.8,0.8,3.4,1.9,4.7,3.3c1.3,1.4,2.3,3.1,3.1,5.1
			C322.4,87.8,322.8,90,322.8,92.4z M313.9,92.4c0-2.7-0.5-4.8-1.6-6.3s-2.6-2.3-4.6-2.3s-3.5,0.8-4.6,2.3s-1.6,3.6-1.6,6.3
			s0.5,4.8,1.6,6.4s2.6,2.4,4.6,2.4s3.5-0.8,4.6-2.4C313.4,97.1,313.9,95,313.9,92.4z"/>
		<path d="M340.8,108.3c-2.5,0-4.6-0.3-6.1-0.8c-1.6-0.5-2.8-1.2-3.7-2.1c-0.9-0.9-1.5-2-1.9-3.3c-0.3-1.3-0.5-2.8-0.5-4.4V64
			l8.7-1.4v33.3c0,0.8,0.1,1.5,0.2,2.1s0.3,1.2,0.7,1.6c0.3,0.4,0.8,0.8,1.4,1.1c0.6,0.3,1.4,0.4,2.5,0.5L340.8,108.3z"/>
		<path d="M357.9,76.3c2.6,0,4.7,0.3,6.4,0.9c1.7,0.6,3.1,1.4,4.1,2.5s1.7,2.4,2.2,3.9c0.4,1.5,0.6,3.3,0.6,5.2v18
			c-1.2,0.3-3,0.6-5.2,1s-4.9,0.6-8,0.6c-2,0-3.8-0.2-5.4-0.5s-3-0.9-4.2-1.7c-1.2-0.8-2.1-1.8-2.7-3.1c-0.6-1.3-0.9-2.8-0.9-4.7
			c0-1.8,0.4-3.3,1.1-4.5s1.7-2.2,2.9-3c1.2-0.7,2.6-1.3,4.1-1.6c1.5-0.3,3.2-0.5,4.8-0.5c1.1,0,2.1,0.1,3,0.1
			c0.9,0.1,1.6,0.2,2.1,0.4v-0.8c0-1.5-0.4-2.7-1.3-3.5s-2.4-1.3-4.7-1.3c-1.5,0-2.9,0.1-4.4,0.3c-1.4,0.2-2.7,0.5-3.7,0.9l-1.1-7
			c0.5-0.2,1.1-0.3,1.9-0.5s1.6-0.3,2.5-0.5c0.9-0.1,1.8-0.3,2.8-0.4C355.9,76.4,356.9,76.3,357.9,76.3z M358.6,101.7
			c0.9,0,1.7,0,2.4-0.1c0.8,0,1.4-0.1,1.9-0.2v-6.6c-0.4-0.1-0.9-0.2-1.6-0.2c-0.7-0.1-1.3-0.1-1.9-0.1c-0.8,0-1.6,0-2.3,0.1
			s-1.3,0.3-1.9,0.6c-0.5,0.3-1,0.6-1.3,1.1s-0.5,1-0.5,1.7c0,1.4,0.5,2.3,1.4,2.8C355.8,101.4,357,101.7,358.6,101.7z"/>
		<path d="M378.2,107.7V64l8.7-1.4v14.7c0.6-0.2,1.3-0.4,2.2-0.6c0.9-0.2,1.8-0.3,2.6-0.3c2.5,0,4.5,0.3,6.2,1
			c1.6,0.7,3,1.6,3.9,2.9c1,1.2,1.7,2.7,2.1,4.4c0.4,1.7,0.6,3.6,0.6,5.7v17.3h-8.7V91.5c0-2.8-0.4-4.8-1.1-5.9
			c-0.7-1.2-2-1.7-4-1.7c-0.8,0-1.5,0.1-2.2,0.2s-1.3,0.3-1.8,0.4v23.3L378.2,107.7L378.2,107.7z"/>
		<path d="M227.9,132.4v7.7h-12.1v32.5h-9.1v-32.5h-12.2v-7.7H227.9z"/>
		<path d="M238.9,141.3c2.6,0,4.7,0.3,6.4,0.9c1.7,0.6,3.1,1.4,4.1,2.5s1.7,2.4,2.2,3.9c0.4,1.5,0.6,3.3,0.6,5.2v18
			c-1.2,0.3-3,0.6-5.2,1s-4.9,0.6-8,0.6c-2,0-3.8-0.2-5.4-0.5c-1.6-0.3-3-0.9-4.2-1.7s-2.1-1.8-2.7-3.1c-0.6-1.3-0.9-2.8-0.9-4.7
			c0-1.8,0.4-3.3,1.1-4.5c0.7-1.2,1.7-2.2,2.9-3s2.6-1.3,4.1-1.6s3.2-0.5,4.8-0.5c1.1,0,2.1,0.1,3,0.1c0.9,0.1,1.6,0.2,2.1,0.4v-0.8
			c0-1.5-0.4-2.7-1.3-3.5c-0.9-0.9-2.4-1.3-4.7-1.3c-1.5,0-2.9,0.1-4.4,0.3c-1.4,0.2-2.7,0.5-3.7,0.9l-1.1-7
			c0.5-0.2,1.1-0.3,1.9-0.5s1.6-0.3,2.5-0.5c0.9-0.1,1.8-0.3,2.8-0.4C236.9,141.3,237.9,141.3,238.9,141.3z M239.6,166.6
			c0.9,0,1.7,0,2.4-0.1c0.8,0,1.4-0.1,1.9-0.2v-6.6c-0.4-0.1-0.9-0.2-1.6-0.2c-0.7-0.1-1.3-0.1-1.9-0.1c-0.8,0-1.6,0-2.3,0.1
			s-1.3,0.3-1.9,0.6c-0.5,0.3-1,0.6-1.3,1.1s-0.5,1-0.5,1.7c0,1.4,0.5,2.3,1.4,2.8C236.7,166.4,238,166.6,239.6,166.6z"/>
		<path d="M277.6,149.8c-0.8-0.2-1.7-0.4-2.7-0.6c-1.1-0.2-2.2-0.3-3.4-0.3c-0.5,0-1.2,0.1-1.9,0.1c-0.8,0.1-1.3,0.2-1.7,0.3v23.4
			h-8.7v-29c1.5-0.5,3.4-1.1,5.5-1.5c2.1-0.5,4.5-0.7,7.1-0.7c0.5,0,1,0,1.7,0.1s1.3,0.1,2,0.2c0.7,0.1,1.3,0.2,2,0.3
			s1.2,0.3,1.7,0.5L277.6,149.8z"/>
		<path d="M308.9,171.6c-1.5,0.4-3.4,0.8-5.7,1.2c-2.3,0.4-4.8,0.6-7.3,0.6c-2.6,0-4.8-0.4-6.5-1.1c-1.7-0.7-3.1-1.7-4.1-2.9
			c-1-1.3-1.7-2.8-2.1-4.5s-0.6-3.7-0.6-5.8v-17h8.7v16c0,2.8,0.4,4.8,1.1,6s2.1,1.9,4.1,1.9c0.6,0,1.3,0,2-0.1s1.3-0.1,1.9-0.2
			v-23.6h8.7L308.9,171.6L308.9,171.6z"/>
		<path d="M316.2,143.1c1.5-0.4,3.4-0.8,5.7-1.2c2.3-0.4,4.8-0.6,7.3-0.6c2.6,0,4.8,0.3,6.5,1s3.1,1.6,4.1,2.9
			c1,1.2,1.7,2.7,2.1,4.4s0.6,3.6,0.6,5.7v17.3h-8.7v-16.2c0-2.8-0.4-4.8-1.1-5.9c-0.7-1.2-2.1-1.7-4.1-1.7c-0.6,0-1.3,0-2,0.1
			s-1.3,0.1-1.9,0.2v23.6H316L316.2,143.1L316.2,143.1z"/>
		<path d="M360.5,141.3c2.6,0,4.7,0.3,6.4,0.9c1.7,0.6,3.1,1.4,4.1,2.5s1.7,2.4,2.2,3.9c0.4,1.5,0.6,3.3,0.6,5.2v18
			c-1.2,0.3-3,0.6-5.2,1s-4.9,0.6-8,0.6c-2,0-3.8-0.2-5.4-0.5s-3-0.9-4.2-1.7s-2.1-1.8-2.7-3.1s-0.9-2.8-0.9-4.7
			c0-1.8,0.4-3.3,1.1-4.5s1.7-2.2,2.9-3s2.6-1.3,4.1-1.6s3.2-0.5,4.8-0.5c1.1,0,2.1,0.1,3,0.1c0.9,0.1,1.6,0.2,2.1,0.4v-0.8
			c0-1.5-0.4-2.7-1.3-3.5c-0.9-0.9-2.4-1.3-4.7-1.3c-1.5,0-2.9,0.1-4.4,0.3c-1.4,0.2-2.7,0.5-3.7,0.9l-1.1-7
			c0.5-0.2,1.1-0.3,1.9-0.5s1.6-0.3,2.5-0.5c0.9-0.1,1.8-0.3,2.8-0.4C358.5,141.3,359.5,141.3,360.5,141.3z M361.2,166.6
			c0.9,0,1.7,0,2.4-0.1c0.8,0,1.4-0.1,1.9-0.2v-6.6c-0.4-0.1-0.9-0.2-1.6-0.2c-0.7-0.1-1.3-0.1-1.9-0.1c-0.8,0-1.6,0-2.3,0.1
			s-1.3,0.3-1.9,0.6c-0.5,0.3-1,0.6-1.3,1.1s-0.5,1-0.5,1.7c0,1.4,0.5,2.3,1.4,2.8C358.4,166.4,359.6,166.6,361.2,166.6z"/>
		<path d="M407.9,173.2c-2.2,0-4.4-0.1-6.6-0.2c-2.2-0.1-4.5-0.5-6.8-1v-39c1.9-0.3,3.9-0.6,6.1-0.8s4.3-0.3,6.2-0.3
			c2.6,0,4.9,0.2,7.1,0.6c2.1,0.4,4,1,5.6,1.9c1.5,0.9,2.8,2.1,3.6,3.5c0.9,1.4,1.3,3.2,1.3,5.4c0,3.2-1.5,5.8-4.6,7.6
			c2.6,1,4.3,2.3,5.2,3.9c0.9,1.7,1.4,3.5,1.4,5.6c0,4.2-1.5,7.4-4.6,9.5C418.6,172.1,414,173.2,407.9,173.2z M403.3,148.2h4.4
			c2.8,0,4.8-0.4,6-1.1c1.2-0.7,1.8-1.9,1.8-3.5s-0.6-2.8-1.9-3.4c-1.2-0.7-3.1-1-5.5-1c-0.8,0-1.6,0-2.5,0s-1.7,0.1-2.4,0.1
			L403.3,148.2L403.3,148.2z M403.3,155.1v10.4c0.7,0.1,1.4,0.1,2.1,0.2c0.8,0,1.6,0.1,2.6,0.1c2.7,0,4.9-0.4,6.6-1.2
			s2.5-2.2,2.5-4.3c0-1.9-0.7-3.2-2.1-4s-3.4-1.2-6-1.2H403.3L403.3,155.1z"/>
		<path d="M443.1,141.3c2.6,0,4.7,0.3,6.4,0.9c1.7,0.6,3.1,1.4,4.1,2.5s1.7,2.4,2.2,3.9c0.4,1.5,0.6,3.3,0.6,5.2v18
			c-1.2,0.3-3,0.6-5.2,1s-4.9,0.6-8,0.6c-2,0-3.8-0.2-5.4-0.5s-3-0.9-4.2-1.7s-2.1-1.8-2.7-3.1s-0.9-2.8-0.9-4.7
			c0-1.8,0.4-3.3,1.1-4.5s1.7-2.2,2.9-3s2.6-1.3,4.1-1.6s3.2-0.5,4.8-0.5c1.1,0,2.1,0.1,3,0.1c0.9,0.1,1.6,0.2,2.1,0.4v-0.8
			c0-1.5-0.4-2.7-1.3-3.5c-0.9-0.9-2.4-1.3-4.7-1.3c-1.5,0-2.9,0.1-4.4,0.3c-1.4,0.2-2.7,0.5-3.7,0.9l-1.1-7
			c0.5-0.2,1.1-0.3,1.9-0.5s1.6-0.3,2.5-0.5c0.9-0.1,1.8-0.3,2.8-0.4C441.1,141.3,442.1,141.3,443.1,141.3z M443.8,166.6
			c0.9,0,1.7,0,2.4-0.1c0.8,0,1.4-0.1,1.9-0.2v-6.6c-0.4-0.1-0.9-0.2-1.6-0.2c-0.7-0.1-1.3-0.1-1.9-0.1c-0.8,0-1.6,0-2.3,0.1
			s-1.3,0.3-1.9,0.6c-0.5,0.3-1,0.6-1.3,1.1s-0.5,1-0.5,1.7c0,1.4,0.5,2.3,1.4,2.8C440.9,166.4,442.2,166.6,443.8,166.6z"/>
		<path d="M463.4,143.1c1.5-0.4,3.4-0.8,5.7-1.2c2.3-0.4,4.8-0.6,7.3-0.6c2.6,0,4.8,0.3,6.5,1s3.1,1.6,4.1,2.9
			c1,1.2,1.7,2.7,2.1,4.4s0.6,3.6,0.6,5.7v17.3H481v-16.2c0-2.8-0.4-4.8-1.1-5.9c-0.7-1.2-2.1-1.7-4.1-1.7c-0.6,0-1.3,0-2,0.1
			s-1.3,0.1-1.9,0.2v23.6h-8.7L463.4,143.1L463.4,143.1z"/>
		<path d="M523.1,168.8c0,5-1.3,8.7-3.8,11.1c-2.5,2.4-6.5,3.6-11.8,3.6c-1.9,0-3.7-0.2-5.6-0.5s-3.6-0.8-5.2-1.3l1.5-7.3
			c1.4,0.5,2.8,1,4.3,1.3s3.2,0.5,5.1,0.5c2.5,0,4.2-0.5,5.3-1.6c1-1.1,1.5-2.5,1.5-4.2v-1.1c-0.9,0.4-1.9,0.8-2.9,1
			c-1,0.2-2.1,0.3-3.2,0.3c-4.2,0-7.5-1.2-9.7-3.7s-3.4-6-3.4-10.5c0-2.2,0.3-4.3,1.1-6.1c0.7-1.8,1.7-3.4,3.1-4.7
			c1.3-1.3,3-2.3,4.9-3.1c1.9-0.7,4.1-1.1,6.6-1.1c1.1,0,2.1,0,3.2,0.1c1.1,0.1,2.2,0.2,3.3,0.4s2.1,0.3,3.1,0.6
			c1,0.2,1.9,0.4,2.6,0.7L523.1,168.8L523.1,168.8z M504.1,156.4c0,4.8,2,7.3,5.9,7.3c0.9,0,1.7-0.1,2.5-0.3s1.4-0.5,2-0.8v-13.8
			c-0.4-0.1-0.9-0.1-1.5-0.2c-0.6-0.1-1.3-0.1-2-0.1c-2.3,0-4,0.8-5.1,2.3C504.7,152.1,504.1,154.1,504.1,156.4z"/>
		<path d="M539.2,166.4c1.6,0,2.7-0.2,3.4-0.5s1-0.9,1-1.8c0-0.7-0.4-1.3-1.3-1.8s-2.1-1.1-3.9-1.8c-1.4-0.5-2.6-1-3.7-1.6
			c-1.1-0.5-2-1.2-2.8-1.9c-0.8-0.8-1.4-1.6-1.8-2.7c-0.4-1.1-0.6-2.3-0.6-3.8c0-2.9,1.1-5.1,3.2-6.8c2.1-1.7,5.1-2.5,8.8-2.5
			c1.9,0,3.6,0.2,5.4,0.5s3.1,0.7,4.1,1.1l-1.5,6.7c-1-0.3-2.1-0.7-3.3-0.9c-1.2-0.3-2.5-0.4-4-0.4c-2.7,0-4.1,0.8-4.1,2.3
			c0,0.3,0.1,0.7,0.2,0.9c0.1,0.3,0.3,0.5,0.7,0.8c0.3,0.3,0.8,0.5,1.4,0.8c0.6,0.3,1.4,0.6,2.3,1c1.9,0.7,3.5,1.4,4.7,2.1
			c1.2,0.7,2.2,1.4,2.9,2.2s1.2,1.7,1.5,2.6c0.3,1,0.4,2.1,0.4,3.4c0,3-1.1,5.3-3.4,6.8c-2.3,1.5-5.5,2.3-9.6,2.3
			c-2.7,0-5-0.2-6.8-0.7s-3.1-0.9-3.7-1.2l1.5-7c1.5,0.6,3,1,4.5,1.4C536.1,166.3,537.7,166.4,539.2,166.4z"/>
		<path d="M568.7,141.3c2.6,0,4.7,0.3,6.4,0.9c1.7,0.6,3.1,1.4,4.1,2.5s1.7,2.4,2.2,3.9c0.4,1.5,0.6,3.3,0.6,5.2v18
			c-1.2,0.3-3,0.6-5.2,1s-4.9,0.6-8,0.6c-2,0-3.8-0.2-5.4-0.5c-1.6-0.3-3-0.9-4.2-1.7s-2.1-1.8-2.7-3.1c-0.6-1.3-0.9-2.8-0.9-4.7
			c0-1.8,0.4-3.3,1.1-4.5c0.7-1.2,1.7-2.2,2.9-3c1.2-0.7,2.6-1.3,4.1-1.6s3.2-0.5,4.8-0.5c1.1,0,2.1,0.1,3,0.1
			c0.9,0.1,1.6,0.2,2.1,0.4v-0.8c0-1.5-0.4-2.7-1.3-3.5c-0.9-0.9-2.4-1.3-4.7-1.3c-1.5,0-2.9,0.1-4.4,0.3c-1.4,0.2-2.7,0.5-3.7,0.9
			l-1.1-7c0.5-0.2,1.1-0.3,1.9-0.5s1.6-0.3,2.5-0.5c0.9-0.1,1.8-0.3,2.8-0.4C566.7,141.3,567.7,141.3,568.7,141.3z M569.4,166.6
			c0.9,0,1.7,0,2.4-0.1c0.8,0,1.4-0.1,1.9-0.2v-6.6c-0.4-0.1-0.9-0.2-1.6-0.2c-0.7-0.1-1.3-0.1-1.9-0.1c-0.8,0-1.6,0-2.3,0.1
			s-1.3,0.3-1.9,0.6c-0.5,0.3-1,0.6-1.3,1.1s-0.5,1-0.5,1.7c0,1.4,0.5,2.3,1.4,2.8C566.6,166.4,567.8,166.6,569.4,166.6z"/>
	</g>
	<path class="st0" d="M50.3,52.4L50.3,52.4v0.2c0,0.2,0,0.4,0,0.6s0,0.4,0,0.6v8.6l0,0v73.7c20.3,0,36.8-16.5,36.8-36.8v-9.2V52.4
		v-36C67,16.4,50.7,32.4,50.3,52.4z"/>
	<path class="st1" d="M87.1,16.4H30.7c-9.6,0-17.4,7.8-17.4,17.4v2c0,9.6,7.8,17.4,17.4,17.4h56.4C87.1,53.2,87.1,16.4,87.1,16.4z"
		/>
	<path class="st0" d="M142.5,99.3c0-20.3-17.1-36.8-38.1-36.8c-0.2,0-0.5,0-0.7,0c-0.4,0-0.7,0-0.9,0l0,0h-6.4v5.7l0,0v62.2l0,0v5.7
		h6.4l0,0c0.2,0,0.5,0,0.9,0c0.2,0,0.5,0,0.7,0C125.4,136.1,142.5,119.6,142.5,99.3L142.5,99.3L142.5,99.3z"/>
	<ellipse class="st1" cx="133.2" cy="136.3" rx="36.8" ry="36.8"/>
	<path class="st2" d="M104,17.5c-4.2-2.5-7.7-0.5-7.7,4.4v25.9c0,4.9,3.5,6.9,7.7,4.4l25.8-12.8c4.2-2.5,4.2-6.6,0-9L104,17.5z"/>
	<path class="st3" d="M102.8,136.1c0.2,0,0.5,0,0.9,0c0.2,0,0.5,0,0.7,0c20.6,0,37.3-15.8,38.1-35.5c-3-0.8-6.1-1.2-9.4-1.2
		c-20.2,0-36.7,16.4-36.7,36.7H102.8L102.8,136.1z"/>
	<path class="st3" d="M50.3,52.4L50.3,52.4v0.2c0,0.2,0,0.4,0,0.6l0,0h36.8v-0.9v-36C67,16.4,50.7,32.4,50.3,52.4z"/>
</g>
</svg>
