<?xml version="1.0" encoding="utf-8"?>
<!-- Generator: Adobe Illustrator 24.2.3, SVG Export Plug-In . SVG Version: 6.00 Build 0)  -->
<svg version="1.1" id="Layer_1" xmlns="http://www.w3.org/2000/svg" xmlns:xlink="http://www.w3.org/1999/xlink" x="0px" y="0px"
	 viewBox="0 0 595.28 595.28" style="enable-background:new 0 0 595.28 595.28;" xml:space="preserve">
<style type="text/css">
	.st0{fill:#009FE3;}
	.st1{fill:#164194;}
	.st2{fill:#E30613;}
	.st3{fill:#0F265C;}
	.st4{fill:#2A2522;}
	.st5{fill:#B2B2B2;}
	.st6{fill:#4A4A49;}
	.st7{fill:#FFFFFF;}
	.st8{fill:#D0D0D0;}
	.st9{fill:#878787;}
	.st10{fill:#FBBA00;}
</style>
<g>
	<g>
		<path d="M235.21,298.19c0.9,0,1.65-0.07,2.23-0.22c0.59-0.15,1.06-0.36,1.41-0.62c0.36-0.26,0.6-0.57,0.74-0.92
			c0.14-0.35,0.2-0.75,0.2-1.19c0-0.93-0.43-1.7-1.31-2.31c-0.87-0.61-2.37-1.27-4.5-1.99c-0.93-0.33-1.86-0.7-2.78-1.12
			c-0.93-0.42-1.76-0.96-2.5-1.6c-0.74-0.64-1.34-1.42-1.8-2.33c-0.46-0.92-0.69-2.03-0.69-3.34s0.24-2.49,0.73-3.54
			c0.49-1.05,1.19-1.94,2.09-2.68c0.9-0.74,1.99-1.3,3.27-1.7c1.28-0.39,2.73-0.59,4.34-0.59c1.91,0,3.56,0.2,4.95,0.61
			s2.54,0.86,3.44,1.35l-1.84,5.04c-0.79-0.41-1.67-0.77-2.64-1.09c-0.97-0.31-2.14-0.47-3.5-0.47c-1.53,0-2.63,0.21-3.3,0.64
			c-0.67,0.42-1,1.07-1,1.95c0,0.52,0.12,0.96,0.37,1.31c0.24,0.35,0.59,0.68,1.04,0.96c0.45,0.28,0.97,0.54,1.55,0.78
			c0.59,0.23,1.24,0.47,1.95,0.72c1.47,0.55,2.76,1.08,3.85,1.62c1.09,0.53,2,1.15,2.72,1.86c0.72,0.71,1.26,1.54,1.62,2.5
			c0.36,0.95,0.53,2.11,0.53,3.48c0,2.65-0.93,4.7-2.78,6.16c-1.86,1.46-4.65,2.19-8.39,2.19c-1.26,0-2.39-0.08-3.4-0.23
			c-1.01-0.15-1.9-0.33-2.68-0.55c-0.78-0.22-1.45-0.45-2.01-0.7c-0.56-0.24-1.03-0.47-1.41-0.69l1.8-5.08
			c0.84,0.46,1.89,0.88,3.13,1.25C231.89,298.01,233.42,298.19,235.21,298.19z"/>
		<path d="M249.25,292.46c0-1.91,0.29-3.58,0.88-5.01c0.59-1.43,1.36-2.63,2.31-3.58c0.95-0.96,2.05-1.68,3.3-2.17
			c1.24-0.49,2.51-0.74,3.82-0.74c3.06,0,5.47,0.93,7.25,2.81c1.77,1.87,2.66,4.62,2.66,8.25c0,0.35-0.01,0.74-0.04,1.16
			c-0.03,0.42-0.05,0.8-0.08,1.13h-13.84c0.14,1.26,0.72,2.25,1.76,2.99c1.04,0.74,2.43,1.11,4.18,1.11c1.12,0,2.22-0.1,3.3-0.31
			s1.96-0.46,2.64-0.76l0.82,4.95c-0.33,0.16-0.77,0.33-1.31,0.49c-0.55,0.16-1.15,0.31-1.82,0.43c-0.67,0.12-1.39,0.23-2.15,0.31
			c-0.76,0.08-1.53,0.12-2.29,0.12c-1.94,0-3.62-0.28-5.05-0.86c-1.43-0.57-2.62-1.35-3.56-2.35c-0.94-1-1.64-2.18-2.09-3.54
			C249.48,295.52,249.25,294.04,249.25,292.46z M263.58,290.13c-0.03-0.52-0.11-1.03-0.26-1.51c-0.15-0.49-0.38-0.93-0.7-1.31
			c-0.31-0.38-0.71-0.7-1.19-0.94c-0.48-0.25-1.07-0.37-1.78-0.37c-0.68,0-1.27,0.12-1.76,0.35c-0.49,0.23-0.9,0.54-1.23,0.92
			c-0.33,0.38-0.58,0.83-0.76,1.33c-0.18,0.5-0.31,1.02-0.39,1.54H263.58z"/>
		<path d="M279.67,289.26c0.6-0.65,1.22-1.33,1.86-2.04c0.64-0.7,1.26-1.4,1.86-2.09s1.16-1.35,1.7-1.97s0.99-1.16,1.37-1.63h7.26
			c-1.45,1.66-2.86,3.25-4.24,4.76c-1.38,1.51-2.89,3.07-4.53,4.68c0.82,0.74,1.66,1.62,2.54,2.64c0.87,1.03,1.72,2.08,2.54,3.18
			c0.82,1.09,1.57,2.19,2.25,3.28c0.68,1.09,1.26,2.09,1.72,2.99h-7.01c-0.43-0.71-0.93-1.5-1.49-2.36
			c-0.56-0.86-1.15-1.72-1.78-2.58c-0.63-0.86-1.29-1.69-1.98-2.48c-0.7-0.79-1.38-1.46-2.07-2.01v9.44h-6.1v-30.78l6.1-0.98V289.26
			z"/>
		<path d="M315.33,292.25c0,1.69-0.25,3.24-0.74,4.65c-0.49,1.41-1.2,2.61-2.13,3.6c-0.93,1-2.04,1.77-3.34,2.31
			c-1.3,0.54-2.75,0.82-4.36,0.82c-1.58,0-3.02-0.27-4.32-0.82c-1.3-0.55-2.41-1.32-3.34-2.31c-0.93-1-1.65-2.2-2.17-3.6
			c-0.52-1.41-0.78-2.95-0.78-4.65s0.27-3.23,0.8-4.63c0.53-1.39,1.27-2.58,2.21-3.56c0.94-0.99,2.06-1.75,3.36-2.29
			c1.3-0.55,2.71-0.82,4.24-0.82c1.55,0,2.98,0.27,4.28,0.82c1.3,0.54,2.41,1.31,3.34,2.29c0.93,0.98,1.65,2.17,2.17,3.56
			C315.06,289.02,315.33,290.56,315.33,292.25z M309.1,292.25c0-1.88-0.38-3.36-1.13-4.44s-1.82-1.62-3.21-1.62
			c-1.39,0-2.47,0.54-3.23,1.62c-0.77,1.08-1.15,2.56-1.15,4.44c0,1.88,0.38,3.38,1.15,4.48c0.76,1.11,1.84,1.66,3.23,1.66
			c1.39,0,2.46-0.55,3.21-1.66S309.1,294.14,309.1,292.25z"/>
		<path d="M328.02,303.47c-1.78-0.03-3.22-0.22-4.32-0.57s-1.98-0.85-2.62-1.49c-0.64-0.64-1.08-1.42-1.31-2.34
			c-0.23-0.91-0.35-1.94-0.35-3.09v-23.7l6.1-0.98v23.46c0,0.55,0.04,1.04,0.12,1.47c0.08,0.44,0.24,0.81,0.47,1.11
			c0.23,0.3,0.57,0.54,1,0.74c0.43,0.19,1.02,0.31,1.76,0.37L328.02,303.47z"/>
		<path d="M340.09,280.96c1.8,0,3.3,0.2,4.5,0.61c1.2,0.41,2.16,1,2.89,1.76c0.72,0.76,1.23,1.69,1.53,2.78
			c0.3,1.09,0.45,2.31,0.45,3.65v12.69c-0.88,0.19-2.09,0.42-3.65,0.68c-1.55,0.26-3.44,0.39-5.65,0.39c-1.39,0-2.65-0.12-3.78-0.37
			c-1.13-0.24-2.11-0.65-2.93-1.2c-0.82-0.56-1.45-1.29-1.88-2.19c-0.44-0.9-0.65-2-0.65-3.31c0-1.26,0.25-2.32,0.76-3.19
			c0.5-0.87,1.18-1.57,2.03-2.09c0.85-0.52,1.81-0.89,2.91-1.12c1.09-0.23,2.22-0.35,3.4-0.35c0.79,0,1.49,0.04,2.11,0.1
			c0.61,0.07,1.11,0.16,1.5,0.27v-0.57c0-1.04-0.31-1.87-0.94-2.5c-0.63-0.63-1.72-0.94-3.28-0.94c-1.04,0-2.06,0.08-3.07,0.23
			c-1.01,0.15-1.88,0.36-2.62,0.64l-0.78-4.91c0.35-0.11,0.8-0.23,1.33-0.35c0.53-0.12,1.11-0.23,1.74-0.32
			c0.63-0.1,1.29-0.18,1.99-0.25C338.68,280.99,339.38,280.96,340.09,280.96z M340.58,298.81c0.6,0,1.17-0.01,1.72-0.04
			c0.54-0.03,0.98-0.07,1.31-0.12v-4.63c-0.25-0.05-0.62-0.11-1.11-0.16c-0.49-0.05-0.94-0.08-1.35-0.08c-0.57,0-1.11,0.03-1.62,0.1
			c-0.51,0.07-0.95,0.2-1.33,0.39c-0.38,0.19-0.68,0.45-0.9,0.78c-0.22,0.32-0.32,0.73-0.32,1.23c0,0.96,0.32,1.62,0.96,1.99
			C338.58,298.62,339.46,298.81,340.58,298.81z"/>
		<path d="M354.37,303.06v-30.78l6.1-0.98v10.32c0.41-0.14,0.93-0.27,1.58-0.39c0.64-0.12,1.26-0.18,1.86-0.18
			c1.74,0,3.2,0.24,4.36,0.72c1.16,0.48,2.09,1.15,2.78,2.03c0.69,0.88,1.19,1.91,1.47,3.11c0.28,1.2,0.43,2.54,0.43,4.01v12.16
			h-6.1v-11.42c0-1.97-0.25-3.36-0.76-4.18c-0.51-0.82-1.44-1.23-2.81-1.23c-0.54,0-1.06,0.05-1.53,0.14
			c-0.48,0.1-0.91,0.2-1.29,0.31v16.38H354.37z"/>
		<path d="M248.52,320.44v5.45h-8.55v22.92h-6.38v-22.92h-8.56v-5.45H248.52z"/>
		<path d="M256.25,326.71c1.8,0,3.3,0.2,4.5,0.61c1.2,0.41,2.16,1,2.89,1.76c0.72,0.76,1.23,1.69,1.53,2.78
			c0.3,1.09,0.45,2.31,0.45,3.65v12.69c-0.88,0.19-2.09,0.42-3.65,0.68c-1.55,0.26-3.44,0.39-5.65,0.39c-1.39,0-2.65-0.12-3.78-0.37
			c-1.13-0.24-2.11-0.65-2.93-1.2c-0.82-0.56-1.45-1.29-1.88-2.19c-0.44-0.9-0.65-2-0.65-3.31c0-1.26,0.25-2.32,0.76-3.19
			c0.5-0.87,1.18-1.57,2.03-2.09c0.85-0.52,1.81-0.89,2.91-1.12c1.09-0.23,2.22-0.35,3.4-0.35c0.79,0,1.49,0.04,2.11,0.1
			c0.61,0.07,1.11,0.16,1.5,0.27v-0.57c0-1.04-0.31-1.87-0.94-2.5c-0.63-0.63-1.72-0.94-3.28-0.94c-1.04,0-2.06,0.08-3.07,0.23
			s-1.88,0.36-2.62,0.64l-0.78-4.91c0.35-0.11,0.8-0.23,1.33-0.35c0.53-0.12,1.11-0.23,1.74-0.32c0.63-0.1,1.29-0.18,1.99-0.25
			C254.84,326.74,255.54,326.71,256.25,326.71z M256.75,344.56c0.6,0,1.17-0.01,1.72-0.04c0.54-0.03,0.98-0.07,1.31-0.12v-4.63
			c-0.25-0.05-0.62-0.11-1.11-0.16c-0.49-0.05-0.94-0.08-1.35-0.08c-0.57,0-1.11,0.03-1.62,0.1c-0.51,0.07-0.95,0.2-1.33,0.39
			c-0.38,0.19-0.68,0.45-0.9,0.78c-0.22,0.32-0.32,0.73-0.32,1.23c0,0.96,0.32,1.62,0.96,1.99
			C254.75,344.37,255.63,344.56,256.75,344.56z"/>
		<path d="M283.52,332.68c-0.55-0.14-1.19-0.28-1.92-0.43c-0.74-0.15-1.53-0.23-2.38-0.23c-0.38,0-0.84,0.04-1.37,0.1
			c-0.53,0.07-0.93,0.15-1.21,0.23v16.46h-6.1v-20.39c1.09-0.38,2.38-0.74,3.87-1.08c1.49-0.34,3.15-0.51,4.97-0.51
			c0.33,0,0.72,0.02,1.19,0.06c0.46,0.04,0.93,0.09,1.39,0.16c0.47,0.07,0.93,0.15,1.39,0.24c0.46,0.09,0.86,0.21,1.19,0.35
			L283.52,332.68z"/>
		<path d="M305.58,348.07c-1.04,0.3-2.37,0.58-4.01,0.84s-3.36,0.39-5.16,0.39c-1.83,0-3.35-0.25-4.57-0.74
			c-1.22-0.49-2.18-1.18-2.89-2.07c-0.71-0.89-1.21-1.94-1.51-3.17c-0.3-1.23-0.45-2.58-0.45-4.05v-12h6.1v11.26
			c0,1.96,0.26,3.38,0.78,4.26c0.52,0.88,1.49,1.31,2.91,1.31c0.43,0,0.9-0.02,1.39-0.06c0.49-0.04,0.93-0.09,1.31-0.14v-16.62h6.1
			V348.07z"/>
		<path d="M310.7,328.02c1.04-0.3,2.38-0.58,4.01-0.84c1.64-0.26,3.36-0.39,5.16-0.39c1.82,0,3.35,0.24,4.56,0.72
			c1.22,0.48,2.18,1.15,2.89,2.03c0.71,0.88,1.22,1.91,1.51,3.11c0.3,1.2,0.45,2.54,0.45,4.01v12.16h-6.1v-11.42
			c0-1.97-0.26-3.36-0.78-4.18c-0.52-0.82-1.49-1.23-2.91-1.23c-0.44,0-0.9,0.02-1.39,0.06c-0.49,0.04-0.93,0.09-1.31,0.14v16.62
			h-6.1V328.02z"/>
		<path d="M341.93,326.71c1.8,0,3.3,0.2,4.5,0.61c1.2,0.41,2.16,1,2.89,1.76c0.72,0.76,1.23,1.69,1.53,2.78
			c0.3,1.09,0.45,2.31,0.45,3.65v12.69c-0.88,0.19-2.09,0.42-3.65,0.68c-1.55,0.26-3.44,0.39-5.65,0.39c-1.39,0-2.65-0.12-3.78-0.37
			c-1.13-0.24-2.11-0.65-2.93-1.2c-0.82-0.56-1.45-1.29-1.88-2.19c-0.44-0.9-0.65-2-0.65-3.31c0-1.26,0.25-2.32,0.76-3.19
			c0.5-0.87,1.18-1.57,2.03-2.09c0.85-0.52,1.81-0.89,2.91-1.12c1.09-0.23,2.22-0.35,3.4-0.35c0.79,0,1.49,0.04,2.11,0.1
			c0.61,0.07,1.11,0.16,1.5,0.27v-0.57c0-1.04-0.31-1.87-0.94-2.5c-0.63-0.63-1.72-0.94-3.28-0.94c-1.04,0-2.06,0.08-3.07,0.23
			c-1.01,0.15-1.88,0.36-2.62,0.64l-0.78-4.91c0.35-0.11,0.8-0.23,1.33-0.35c0.53-0.12,1.11-0.23,1.74-0.32
			c0.63-0.1,1.29-0.18,1.99-0.25C340.52,326.74,341.22,326.71,341.93,326.71z M342.43,344.56c0.6,0,1.17-0.01,1.72-0.04
			c0.54-0.03,0.98-0.07,1.31-0.12v-4.63c-0.25-0.05-0.62-0.11-1.11-0.16c-0.49-0.05-0.94-0.08-1.35-0.08c-0.57,0-1.11,0.03-1.62,0.1
			c-0.51,0.07-0.95,0.2-1.33,0.39c-0.38,0.19-0.68,0.45-0.9,0.78c-0.22,0.32-0.32,0.73-0.32,1.23c0,0.96,0.32,1.62,0.96,1.99
			S341.3,344.56,342.43,344.56z"/>
		<path d="M375.29,349.18c-1.55,0-3.1-0.05-4.65-0.14c-1.54-0.1-3.15-0.32-4.81-0.68v-27.51c1.31-0.24,2.74-0.43,4.3-0.55
			c1.55-0.12,3-0.19,4.34-0.19c1.8,0,3.46,0.13,4.97,0.39c1.51,0.26,2.82,0.7,3.91,1.33c1.09,0.63,1.95,1.46,2.56,2.48
			s0.92,2.28,0.92,3.79c0,2.26-1.09,4.05-3.27,5.36c1.8,0.68,3.03,1.61,3.68,2.78c0.66,1.17,0.99,2.5,0.99,3.97
			c0,2.97-1.09,5.21-3.26,6.71C382.8,348.43,379.58,349.18,375.29,349.18z M372.06,331.58h3.11c1.96,0,3.37-0.25,4.22-0.76
			c0.85-0.5,1.27-1.31,1.27-2.43c0-1.15-0.44-1.95-1.31-2.42c-0.88-0.46-2.16-0.69-3.85-0.69c-0.54,0-1.13,0.01-1.76,0.02
			c-0.63,0.01-1.19,0.05-1.68,0.1V331.58z M372.06,336.45v7.32c0.46,0.05,0.97,0.1,1.51,0.12c0.55,0.03,1.15,0.04,1.8,0.04
			c1.91,0,3.45-0.27,4.62-0.82c1.18-0.55,1.76-1.55,1.76-3.03c0-1.31-0.49-2.24-1.47-2.8c-0.99-0.56-2.39-0.84-4.22-0.84H372.06z"/>
		<path d="M400.06,326.71c1.8,0,3.3,0.2,4.5,0.61c1.2,0.41,2.16,1,2.89,1.76c0.72,0.76,1.23,1.69,1.53,2.78
			c0.3,1.09,0.45,2.31,0.45,3.65v12.69c-0.88,0.19-2.09,0.42-3.65,0.68c-1.55,0.26-3.44,0.39-5.65,0.39c-1.39,0-2.65-0.12-3.78-0.37
			c-1.13-0.24-2.11-0.65-2.93-1.2c-0.82-0.56-1.45-1.29-1.88-2.19c-0.44-0.9-0.65-2-0.65-3.31c0-1.26,0.25-2.32,0.76-3.19
			c0.5-0.87,1.18-1.57,2.03-2.09c0.85-0.52,1.81-0.89,2.91-1.12c1.09-0.23,2.22-0.35,3.4-0.35c0.79,0,1.49,0.04,2.11,0.1
			c0.61,0.07,1.11,0.16,1.5,0.27v-0.57c0-1.04-0.31-1.87-0.94-2.5c-0.63-0.63-1.72-0.94-3.28-0.94c-1.04,0-2.06,0.08-3.07,0.23
			c-1.01,0.15-1.88,0.36-2.62,0.64l-0.78-4.91c0.35-0.11,0.8-0.23,1.33-0.35c0.53-0.12,1.11-0.23,1.74-0.32
			c0.63-0.1,1.29-0.18,1.99-0.25C398.65,326.74,399.35,326.71,400.06,326.71z M400.55,344.56c0.6,0,1.17-0.01,1.72-0.04
			c0.54-0.03,0.98-0.07,1.31-0.12v-4.63c-0.25-0.05-0.62-0.11-1.11-0.16c-0.49-0.05-0.94-0.08-1.35-0.08c-0.57,0-1.11,0.03-1.62,0.1
			c-0.51,0.07-0.95,0.2-1.33,0.39c-0.38,0.19-0.68,0.45-0.9,0.78c-0.22,0.32-0.32,0.73-0.32,1.23c0,0.96,0.32,1.62,0.96,1.99
			C398.55,344.37,399.43,344.56,400.55,344.56z"/>
		<path d="M414.34,328.02c1.04-0.3,2.38-0.58,4.01-0.84c1.64-0.26,3.36-0.39,5.16-0.39c1.82,0,3.35,0.24,4.56,0.72
			c1.22,0.48,2.18,1.15,2.89,2.03c0.71,0.88,1.22,1.91,1.51,3.11c0.3,1.2,0.45,2.54,0.45,4.01v12.16h-6.1v-11.42
			c0-1.97-0.26-3.36-0.78-4.18c-0.52-0.82-1.49-1.23-2.91-1.23c-0.44,0-0.9,0.02-1.39,0.06c-0.49,0.04-0.93,0.09-1.31,0.14v16.62
			h-6.1V328.02z"/>
		<path d="M456.42,346.11c0,3.52-0.89,6.13-2.68,7.84c-1.79,1.7-4.55,2.56-8.29,2.56c-1.31,0-2.62-0.12-3.93-0.35
			c-1.31-0.23-2.53-0.54-3.65-0.92l1.07-5.12c0.96,0.38,1.96,0.68,3.01,0.9c1.05,0.22,2.24,0.32,3.58,0.32
			c1.74,0,2.98-0.38,3.7-1.15c0.72-0.76,1.08-1.74,1.08-2.95v-0.78c-0.65,0.3-1.33,0.53-2.03,0.68c-0.7,0.15-1.45,0.22-2.27,0.22
			c-2.97,0-5.25-0.88-6.84-2.64c-1.58-1.76-2.37-4.22-2.37-7.39c0-1.58,0.24-3.02,0.74-4.32c0.49-1.3,1.21-2.41,2.15-3.34
			c0.94-0.93,2.09-1.64,3.46-2.15c1.36-0.5,2.91-0.76,4.63-0.76c0.74,0,1.49,0.03,2.27,0.1c0.78,0.07,1.55,0.16,2.31,0.27
			c0.76,0.11,1.49,0.24,2.19,0.39s1.32,0.31,1.86,0.47V346.11z M443.04,337.35c0,3.41,1.38,5.12,4.13,5.12
			c0.63,0,1.22-0.08,1.76-0.24c0.54-0.16,1.01-0.35,1.39-0.57v-9.74c-0.3-0.05-0.65-0.1-1.07-0.15c-0.41-0.04-0.89-0.06-1.43-0.06
			c-1.61,0-2.81,0.53-3.6,1.59S443.04,335.71,443.04,337.35z"/>
		<path d="M467.72,344.43c1.12,0,1.91-0.11,2.37-0.33c0.46-0.22,0.7-0.64,0.7-1.27c0-0.49-0.3-0.92-0.9-1.29
			c-0.6-0.37-1.51-0.78-2.74-1.25c-0.96-0.35-1.82-0.72-2.6-1.11c-0.78-0.38-1.44-0.84-1.99-1.37c-0.55-0.53-0.97-1.16-1.27-1.9
			c-0.3-0.74-0.45-1.62-0.45-2.66c0-2.02,0.75-3.62,2.25-4.79c1.5-1.17,3.56-1.76,6.18-1.76c1.31,0,2.57,0.12,3.77,0.35
			c1.2,0.23,2.16,0.48,2.86,0.76l-1.07,4.75c-0.71-0.24-1.48-0.46-2.31-0.65c-0.83-0.19-1.77-0.29-2.81-0.29
			c-1.91,0-2.86,0.53-2.86,1.6c0,0.24,0.04,0.46,0.12,0.65c0.08,0.19,0.24,0.38,0.49,0.55c0.24,0.18,0.58,0.37,1,0.58
			c0.42,0.21,0.96,0.43,1.62,0.68c1.34,0.49,2.44,0.98,3.32,1.46c0.87,0.48,1.56,1,2.07,1.56c0.51,0.56,0.86,1.18,1.07,1.86
			c0.2,0.68,0.31,1.47,0.31,2.37c0,2.12-0.8,3.73-2.39,4.82c-1.6,1.09-3.85,1.64-6.77,1.64c-1.91,0-3.5-0.16-4.77-0.49
			c-1.27-0.32-2.15-0.6-2.64-0.82l1.03-4.95c1.04,0.41,2.1,0.73,3.19,0.96C465.58,344.32,466.66,344.43,467.72,344.43z"/>
		<path d="M488.52,326.71c1.8,0,3.3,0.2,4.5,0.61c1.2,0.41,2.16,1,2.89,1.76c0.72,0.76,1.23,1.69,1.53,2.78
			c0.3,1.09,0.45,2.31,0.45,3.65v12.69c-0.88,0.19-2.09,0.42-3.65,0.68c-1.55,0.26-3.44,0.39-5.65,0.39c-1.39,0-2.65-0.12-3.78-0.37
			c-1.13-0.24-2.11-0.65-2.93-1.2c-0.82-0.56-1.45-1.29-1.88-2.19c-0.44-0.9-0.65-2-0.65-3.31c0-1.26,0.25-2.32,0.76-3.19
			c0.5-0.87,1.18-1.57,2.03-2.09c0.85-0.52,1.81-0.89,2.91-1.12c1.09-0.23,2.22-0.35,3.4-0.35c0.79,0,1.49,0.04,2.11,0.1
			c0.61,0.07,1.11,0.16,1.5,0.27v-0.57c0-1.04-0.31-1.87-0.94-2.5c-0.63-0.63-1.72-0.94-3.28-0.94c-1.04,0-2.06,0.08-3.07,0.23
			c-1.01,0.15-1.88,0.36-2.62,0.64l-0.78-4.91c0.35-0.11,0.8-0.23,1.33-0.35c0.53-0.12,1.11-0.23,1.74-0.32
			c0.63-0.1,1.29-0.18,1.99-0.25C487.11,326.74,487.81,326.71,488.52,326.71z M489.01,344.56c0.6,0,1.17-0.01,1.72-0.04
			c0.54-0.03,0.98-0.07,1.31-0.12v-4.63c-0.25-0.05-0.62-0.11-1.11-0.16c-0.49-0.05-0.94-0.08-1.35-0.08c-0.57,0-1.11,0.03-1.62,0.1
			c-0.51,0.07-0.95,0.2-1.33,0.39c-0.38,0.19-0.68,0.45-0.9,0.78c-0.22,0.32-0.32,0.73-0.32,1.23c0,0.96,0.32,1.62,0.96,1.99
			S487.89,344.56,489.01,344.56z"/>
	</g>
	<path class="st0" d="M123.42,264.11L123.42,264.11l0,0.16c0,0.15-0.01,0.29-0.01,0.44s0.01,0.29,0.01,0.44l0,6.06
		c0,0-0.01,0-0.01,0l0,51.88c14.32,0,25.94-11.61,25.94-25.94v-6.5l0-26.53l0-25.34C135.22,238.77,123.74,250.06,123.42,264.11z"/>
	<path class="st1" d="M149.34,238.77l-39.72,0c-6.73,0-12.24,5.52-12.24,12.26l0,1.43c0,6.74,5.51,12.26,12.24,12.26l39.72,0
		L149.34,238.77z"/>
	<path class="st0" d="M188.35,297.11c0-14.31-12.01-25.91-26.83-25.91c-0.16,0-0.32,0.01-0.49,0.01c-0.26-0.01-0.49-0.01-0.64-0.01
		v0h-4.51v4.03h0l0,43.81h0v4.03h4.51v0c0.15,0,0.38-0.01,0.64-0.01c0.16,0,0.32,0.01,0.49,0.01c14.82,0,26.83-11.6,26.83-25.91
		c0-0.01,0-0.02,0-0.02C188.35,297.13,188.35,297.12,188.35,297.11z"/>
	
		<ellipse transform="matrix(0.922 -0.3871 0.3871 0.922 -110.9293 95.5775)" class="st1" cx="181.82" cy="323.19" rx="25.94" ry="25.94"/>
	<path class="st2" d="M161.28,239.52c-2.97-1.75-5.39-0.36-5.39,3.08l0,18.27c0,3.45,2.43,4.83,5.39,3.08l18.19-9.03
		c2.97-1.75,2.97-4.62,0-6.37L161.28,239.52z"/>
	<path class="st3" d="M160.39,323.07c0.15,0,0.38-0.01,0.64-0.01c0.16,0,0.32,0.01,0.49,0.01c14.49,0,26.29-11.1,26.81-24.97
		c-2.11-0.56-4.33-0.86-6.62-0.86c-14.26,0-25.83,11.56-25.83,25.83L160.39,323.07L160.39,323.07z"/>
	<path class="st3" d="M123.42,264.11L123.42,264.11l0,0.16c0,0.15-0.01,0.29-0.01,0.44c0,0,0,0.01,0,0.01l25.94,0v-0.61l0-25.34
		C135.22,238.77,123.74,250.06,123.42,264.11z"/>
</g>
</svg>
