<?xml version="1.0" encoding="UTF-8"?>
<svg id="Layer_1" data-name="Layer 1" xmlns="http://www.w3.org/2000/svg" viewBox="0 0 156.7 156.8">
  <defs>
    <style>
      .cls-1 {
        fill: #e30613;
      }

      .cls-2 {
        fill: #009fe3;
      }

      .cls-3 {
        fill: #164194;
      }

      .cls-4 {
        fill: #0f265c;
      }
    </style>
  </defs>
  <path class="cls-2" d="M37,36.1h0v10h0V119.8c20.3,0,36.8-16.5,36.8-36.8V.1c-20.1,0-36.4,16-36.8,36Z"/>
  <path class="cls-3" d="M73.8,.1H17.4C7.8,.1,0,7.9,0,17.5v2c0,9.6,7.8,17.4,17.4,17.4h56.4s0-36.8,0-36.8Z"/>
  <path class="cls-2" d="M129.2,83c0-20.3-17.1-36.8-38.1-36.8h-8v5.7h0v62.2h0v5.7h8c21,0,38.1-16.5,38.1-36.8h0Z"/>
  <circle class="cls-3" cx="119.9" cy="120" r="36.8"/>
  <path class="cls-1" d="M90.7,1.2c-4.2-2.5-7.7-.5-7.7,4.4V31.5c0,4.9,3.5,6.9,7.7,4.4l25.8-12.8c4.2-2.5,4.2-6.6,0-9L90.7,1.2Z"/>
  <path class="cls-4" d="M89.5,119.8h1.6c20.6,0,37.3-15.8,38.1-35.5-3-.8-6.1-1.2-9.4-1.2-20.2,0-36.7,16.4-36.7,36.7h6.4Z"/>
  <path class="cls-4" d="M37,36.1h0v.8h36.8V0c-20.1,.1-36.4,16.1-36.8,36.1Z"/>
</svg>